# xmcd
#
# Track frame offsets:
#	150
#	14510
#	25797
#	39160
#	51472
#	66142
#	80757
#	91960
#	104925
#	113980
#	130265
#	142730
#	154220
#	168045
#	180702
#	193450
#	207875
#	218522
#
# Disc length: 3124 seconds
#
# Revision: 0
# Processed by: cddbd v1.5.2PL0 Copyright (c) Steve Scherf et al.
# Submitted via: EasyCDDAExtractor 4.6.0.1
#
DISCID=000c3212
DTITLE=Various Artist - VA - Airplay International # 17
DYEAR=1900
DGENRE=Country
TTITLE0=Reta Lee - Hey Baby
TTITLE1=Gabe Nieto - I Love You A Thousand Ways
TTITLE2=Shirley Bruce - It Just Won't Feel Like Cheatin'
TTITLE3=Donna Linn - Right Mood
TTITLE4=Shane - Only In My Dreams
TTITLE5=Dawn Mead - All My Life
TTITLE6=Marie Layne - I Love That Feelin'
TTITLE7=Tricia Elliott - How Far Can I Fall
TTITLE8=Rhonda Jones - I'm Gonna Raise A Little Hell
TTITLE9=Anne Marie - This O' Lonely Heart
TTITLE10=Christie Allen - Love's Been Knockin'
TTITLE11=Ercie James - If You Held A Gun To My Head
TTITLE12=Karen Wheeler - Soft Touch
TTITLE13=4 Guys - Turn Around, Look At Me
TTITLE14=Paul Walker - Tall, Dark And Handsome
TTITLE15=Don Pittman - Pappa's On A Roll
TTITLE16=Blaine and Christie Allen - Glory To His Name
TTITLE17=Moore and Moore - I Surrender
EXTD=
EXTT0=
EXTT1=
EXTT2=
EXTT3=
EXTT4=
EXTT5=
EXTT6=
EXTT7=
EXTT8=
EXTT9=
EXTT10=
EXTT11=
EXTT12=
EXTT13=
EXTT14=
EXTT15=
EXTT16=
EXTT17=
PLAYORDER=
